<svg xmlns="http://www.w3.org/2000/svg" width="43" height="43" viewBox="0 0 43 43"><defs><style>.a{fill:#2e2e2e;}.b{fill:#fff;}</style></defs><g transform="translate(-745.193 -498)"><rect class="a" width="43" height="43" rx="10" transform="translate(745.193 498)"/><path class="b" d="M15.885,11.626A4.565,4.565,0,0,1,18.41,7.462a5.458,5.458,0,0,0-4.276-2.189c-1.791-.137-3.751,1.015-4.469,1.015-.758,0-2.493-.968-3.857-.968C2.993,5.362,0,7.5,0,11.862a11.943,11.943,0,0,0,.726,3.987c.647,1.8,2.979,6.222,5.412,6.15,1.272-.029,2.172-.878,3.827-.878,1.606,0,2.438.878,3.857.878,2.455-.034,4.564-4.051,5.178-5.859a4.85,4.85,0,0,1-3.115-4.514ZM13.028,3.562A4.541,4.541,0,0,0,14.24,0a5.407,5.407,0,0,0-3.428,1.713A4.623,4.623,0,0,0,9.522,5.246a4.286,4.286,0,0,0,3.506-1.684Z" transform="translate(757 508)"/></g></svg>