<svg xmlns="http://www.w3.org/2000/svg" width="22" height="20.2" viewBox="0 0 22 20.2"><defs><style>.a{fill:#3c3737;fill-rule:evenodd;}.b{fill:none;stroke:#3c3737;stroke-linecap:round;stroke-linejoin:round;stroke-width:2px;}</style></defs><g transform="translate(-1 -2.293)"><path class="a" d="M1.014,10.084a.464.464,0,0,1,.45-.576H22.536a.464.464,0,0,1,.45.576L20.059,21.79a.927.927,0,0,1-.9.7H4.84a.927.927,0,0,1-.9-.7ZM12.75,13.625a.75.75,0,1,0-1.5,0v4.75a.75.75,0,0,0,1.5,0Zm4.319-.562a.75.75,0,0,1,.448.961l-1.625,4.464a.75.75,0,1,1-1.41-.513l1.625-4.463A.75.75,0,0,1,17.069,13.064Zm-9.176.448a.75.75,0,1,0-1.409.513l1.625,4.464a.75.75,0,1,0,1.41-.513Z"/><path class="b" d="M18.5,10.5,13.589,4.078a2,2,0,0,0-3.177,0L5.5,10.5"/></g></svg>