<svg xmlns="http://www.w3.org/2000/svg" width="84" height="42.039" viewBox="0 0 84 42.039"><defs><style>.a{fill:#f94a4b;fill-rule:evenodd;}</style></defs><g transform="translate(-30 -5)"><path class="a" d="M101.528,43.9a3.464,3.464,0,1,0-3.765-3.451A3.617,3.617,0,0,0,101.528,43.9Zm0,3.137a6.6,6.6,0,1,0-6.9-6.588A6.75,6.75,0,0,0,101.528,47.039Z"/><path class="a" d="M58.235,43.9A3.464,3.464,0,1,0,54.47,40.45,3.617,3.617,0,0,0,58.235,43.9Zm0,3.137a6.6,6.6,0,1,0-6.9-6.588A6.75,6.75,0,0,0,58.235,47.039Z"/><path class="a" d="M47.358,5a2.51,2.51,0,0,0-2.5,2.29l-.294,3.356h6.77a1.255,1.255,0,0,1,0,2.51h-6.99l-.22,2.51h4.7a1.255,1.255,0,0,1,0,2.51H43.9l-.22,2.51h8.278a1.255,1.255,0,0,1,0,2.51h-8.5l-.22,2.51h6.208a1.255,1.255,0,1,1,0,2.51H43.022l-.861,9.82a2.51,2.51,0,0,0,2.5,2.729h5.417a8.157,8.157,0,1,1,16.313,0h26.98a8.157,8.157,0,0,1,16.313,0h.824a2.509,2.509,0,0,0,2.5-2.306l.982-12.024a2.511,2.511,0,0,0-.6-1.837l-7.979-9.309a2.51,2.51,0,0,0-1.906-.877H94.25a2.508,2.508,0,0,1-1.209-.31l.666-6.329A2.51,2.51,0,0,0,91.211,5ZM95.232,16.583a.314.314,0,0,1,.313-.29h6.69a1.256,1.256,0,0,1,.922.4l6.67,7.226a.314.314,0,0,1-.23.527H94.965a.314.314,0,0,1-.313-.338Zm-31.292.624.241-1.34H58.022L56.17,26.333h1.717L58.7,21.71h3.463l.241-1.325H58.94l.557-3.177Zm7.84-.632a3.552,3.552,0,0,0-2.394-.708H65.772L63.92,26.333h1.717l.738-4.186H67.7l1.656,4.186H71.4L69.581,22a3.791,3.791,0,0,0,2.951-3,4.235,4.235,0,0,0,.06-.587A2.322,2.322,0,0,0,71.78,16.575Zm-.964,1.988a2.227,2.227,0,0,1-.045.437,2.058,2.058,0,0,1-.723,1.31,2.307,2.307,0,0,1-1.536.482h-1.9l.632-3.584h1.9a1.84,1.84,0,0,1,1.25.361A1.213,1.213,0,0,1,70.816,18.563ZM76.2,20.37l.557-3.177h4.066l.241-1.34H75.286L73.434,26.333h5.783l.241-1.34H75.392l.587-3.3h3.614l.226-1.325Zm7.9,0,.557-3.177h4.066l.241-1.34H83.183L81.331,26.333h5.783l.241-1.34H83.288l.587-3.3H87.49l.226-1.325Z"/><path class="a" d="M38.784,8.138a1.255,1.255,0,1,0,0,2.51H53.843a1.255,1.255,0,1,0,0-2.51Zm-5.02,5.019a1.255,1.255,0,1,0,0,2.51H53.843a1.255,1.255,0,1,0,0-2.51Zm1.255,6.274a1.255,1.255,0,0,1,1.255-1.255H53.843a1.255,1.255,0,1,1,0,2.51H36.274A1.255,1.255,0,0,1,35.02,19.432ZM31.255,23.2a1.255,1.255,0,1,0,0,2.51H53.843a1.255,1.255,0,1,0,0-2.51Z"/></g></svg>