<svg xmlns="http://www.w3.org/2000/svg" width="154.902" height="41.578" viewBox="0 0 154.902 41.578"><defs><style>.a{fill:#2e2e2e;}.b{fill:#f84e4f;}.c{fill:#fff;}</style></defs><path class="a" d="M64.765,25.861a8.592,8.592,0,0,1-3.919.856c-4.168,0-7.061-2.653-7.061-6.39,0-3.794,2.893-6.39,7.123-6.39a7.69,7.69,0,0,1,5.63,2.254l3.235-2.739C67.658,11.2,64.485,10,60.659,10c-6.936,0-11.975,4.308-11.975,10.327s5.039,10.327,11.882,10.327a15.977,15.977,0,0,0,8.8-2.539v-8.1h-4.6Z"/><path class="a" d="M78.342,16.989V14.964H73.707V30.311h4.852V23.065c0-2.938,1.773-4.279,4.448-4.279.373,0,.684.028,1.089.057V14.736C81.514,14.736,79.524,15.506,78.342,16.989Z"/><path class="a" d="M94.792,30.54c5.319,0,9.176-3.281,9.176-7.9s-3.857-7.9-9.176-7.9-9.207,3.281-9.207,7.9S89.473,30.54,94.792,30.54Zm0-3.652A4.059,4.059,0,0,1,90.5,22.638a4.277,4.277,0,0,1,8.554,0A4.035,4.035,0,0,1,94.792,26.888Z"/><path class="a" d="M118.7,14.964,113.91,25.4l-4.634-10.441h-5.008L111.3,30.311h5.008l7.061-15.348Z"/><path class="a" d="M141.283,22.695c0-4.935-3.795-7.959-8.71-7.959-5.1,0-8.927,3.309-8.927,7.9,0,4.564,3.764,7.9,9.55,7.9,3.017,0,5.35-.856,6.9-2.482l-2.582-2.567a5.961,5.961,0,0,1-4.2,1.483c-2.551,0-4.324-1.17-4.79-3.081h12.66C141.221,23.522,141.283,23.037,141.283,22.695ZM132.6,18.1a3.888,3.888,0,0,1,4.105,3.2h-8.242A3.877,3.877,0,0,1,132.6,18.1Z"/><path class="a" d="M149.148,16.989V14.964h-4.635V30.311h4.853V23.065c0-2.938,1.773-4.279,4.448-4.279.373,0,.684.028,1.088.057V14.736C152.321,14.736,150.33,15.506,149.148,16.989Z"/><path class="b" d="M41.578,20.789A20.789,20.789,0,1,1,20.789,0,20.789,20.789,0,0,1,41.578,20.789Z"/><path class="c" d="M20.83,32.3a1.7,1.7,0,1,1-1.691-1.857A1.78,1.78,0,0,1,20.83,32.3Z"/><path class="c" d="M28.271,32.3A1.7,1.7,0,1,1,26.58,30.44,1.78,1.78,0,0,1,28.271,32.3Z"/><path class="c" d="M23.647,20.619h1.011v2.547a1.919,1.919,0,0,1-1.5,2.03,11.1,11.1,0,0,1-1.525.088c-4.943,0-6.578-6.611-4.458-10.892l-5.75-3.645a1.128,1.128,0,0,0-1.617.476A1.371,1.371,0,0,0,10.244,13l2.214,1.4c-2.069,7.416,1.674,14.579,8.9,14.579a20.792,20.792,0,0,0,3.868-.323c.292-.055.561-.114.816-.179.286-.073.555-.151.823-.236a2.2,2.2,0,0,0,1.352-2.166v-8.4a.7.7,0,0,0-.624-.756H20.535a10.292,10.292,0,0,0,.514,1.264C21.568,19.257,22.461,20.619,23.647,20.619Z"/><path class="c" d="M14.5,10.582c2.626-2.91,6.635-3.2,10.318-3.151.373.005.745.011,1.117.013a.184.184,0,0,1,.157.253c-.806,2.239-1.51,3.281-3.611,3.445a5.8,5.8,0,0,0-4.289,1.78Z"/></svg>