<svg xmlns="http://www.w3.org/2000/svg" xmlns:xlink="http://www.w3.org/1999/xlink" width="74.146" height="70.507" viewBox="0 0 74.146 70.507"><defs><style>.a{fill:#fa6667;fill-rule:evenodd;}.b{fill:url(#a);}</style><linearGradient id="a" x1="0.5" x2="0.5" y2="1" gradientUnits="objectBoundingBox"><stop offset="0" stop-color="#ff7374"/><stop offset="1" stop-color="#e22123"/></linearGradient></defs><g transform="translate(-1046.408 -358.363)"><path class="a" d="M4.886,15.519H2.666a2.218,2.218,0,0,0-2.22,2.217V33.809a2.219,2.219,0,0,0,2.22,2.217H28.75a2.219,2.219,0,0,0,2.22-2.217V17.736a2.219,2.219,0,0,0-2.22-2.217H26.53V10.808a10.822,10.822,0,0,0-21.644,0Zm2.22,0h17.2V10.808a8.6,8.6,0,0,0-17.2,0Zm9.666,9.106a1.942,1.942,0,1,0-2.128,0,1.108,1.108,0,0,0-.046.317v2.217a1.11,1.11,0,0,0,2.22,0V24.941A1.108,1.108,0,0,0,16.772,24.625Z" transform="translate(1045.962 358.363)"/><path class="b" d="M0,10.581V29.1a5.294,5.294,0,0,0,5.3,5.291H31.348l12.016,8.364a1.06,1.06,0,0,0,1.665-.868v-7.5h2.649a5.294,5.294,0,0,0,5.3-5.291V5.291A5.294,5.294,0,0,0,47.679,0H11.125V6.349a4.235,4.235,0,0,1-4.238,4.233ZM12.714,9.523a1.059,1.059,0,0,1,1.06-1.058H39.2a1.058,1.058,0,1,1,0,2.116H13.774A1.059,1.059,0,0,1,12.714,9.523Zm0,7.407a1.059,1.059,0,0,1,1.06-1.058H39.2a1.058,1.058,0,1,1,0,2.116H13.774A1.059,1.059,0,0,1,12.714,16.93Zm1.06,6.349a1.058,1.058,0,1,0,0,2.116H39.2a1.058,1.058,0,1,0,0-2.116Z" transform="translate(1067.577 385.924)"/></g></svg>